#Comment line ignore any data following # character 
#Hierarchical Translation and Rotation (.htr) file 
[Header]	
#Header keywords are followed by a single value 
FileType HTR		#Single word string
DataType HTRS		#Translation followed by rotation and scale data
FileVersion 1		#integer
NumSegments 23		#integer
NumFrames 4		#integer
DataFrameRate 30		#integer, data frame rate in this file
EulerRotationOrder ZYX
CalibrationUnits mm
RotationUnits Degrees
GlobalAxisofGravity Y
BoneLengthAxis Y
ScaleFactor 1.00
[SegmentNames&Hierarchy]
#CHILD	PARENT
MASTER GLOBAL
weapon MASTER
arm_lock_bottom_part1 weapon
arm_lock_bottom_part2 weapon
arm_lock_bottom_part3 weapon
arm_lock_bottom_part4 weapon
arm_lock_top_part1 weapon
arm_lock_top_part2 weapon
arm_lock_top_part3 weapon
front_lower_left_part1 weapon
front_lower_right_part1 weapon
front_top_left_part weapon
front_top_right_part1 weapon
scope_part1 weapon
scope_part2 weapon
front_lower_left_part2 front_lower_left_part1
front_lower_left_part3 front_lower_left_part2
front_lower_right_part2 front_lower_right_part1
front_lower_right_part3 front_lower_right_part2
front_top_left_part2 front_top_left_part
front_top_left_part3 front_top_left_part2
front_top_right_part2 front_top_right_part1
front_top_right_part3 front_top_right_part2
[BasePosition]
#SegmentName Tx, Ty, Tz, Rx, Ry, Rz, BoneLength
MASTER 0.000000 0.000000 0.000000 -90.000000 0.000000 0.000000 10.000000 
weapon 0.000000 0.000000 0.000000 0.000000 0.000000 0.000000 10.000000 
arm_lock_bottom_part1 0.000000 0.000000 0.000000 0.000000 0.000000 0.000000 10.000000 
arm_lock_bottom_part2 0.000000 0.000000 0.000000 0.000000 0.000000 0.000000 10.000000 
arm_lock_bottom_part3 0.000000 0.000000 0.000000 0.000000 0.000000 0.000000 10.000000 
arm_lock_bottom_part4 0.000000 0.000000 0.000000 0.000000 0.000000 0.000000 10.000000 
arm_lock_top_part1 0.000000 0.000000 0.000000 0.000000 0.000000 0.000000 10.000000 
arm_lock_top_part2 0.000000 0.000000 0.000000 0.000000 0.000000 0.000000 10.000000 
arm_lock_top_part3 0.000000 0.000000 0.000000 0.000000 0.000000 0.000000 10.000000 
front_lower_left_part1 0.000000 0.000000 0.000000 0.000000 0.000000 0.000000 10.000000 
front_lower_right_part1 0.000000 0.000000 0.000000 0.000000 0.000000 0.000000 10.000000 
front_top_left_part 0.000000 0.000000 0.000000 0.000000 0.000000 0.000000 10.000000 
front_top_right_part1 0.000000 0.000000 0.000000 0.000000 0.000000 0.000000 10.000000 
scope_part1 0.000000 0.000000 0.000000 0.000000 0.000000 0.000000 10.000000 
scope_part2 0.000000 0.000000 0.000000 0.000000 0.000000 0.000000 10.000000 
front_lower_left_part2 0.000000 0.000000 0.000000 0.000000 0.000000 0.000000 10.000000 
front_lower_left_part3 0.000000 0.000000 0.000000 0.000000 0.000000 0.000000 10.000000 
front_lower_right_part2 0.000000 0.000000 0.000000 0.000000 0.000000 0.000000 10.000000 
front_lower_right_part3 0.000000 0.000000 0.000000 0.000000 0.000000 0.000000 10.000000 
front_top_left_part2 0.000000 0.000000 0.000000 0.000000 0.000000 0.000000 10.000000 
front_top_left_part3 0.000000 0.000000 0.000000 0.000000 0.000000 0.000000 10.000000 
front_top_right_part2 0.000000 0.000000 0.000000 0.000000 0.000000 0.000000 10.000000 
front_top_right_part3 0.000000 0.000000 0.000000 0.000000 0.000000 0.000000 10.000000 
#Beginning of Data. Separated by tabs
#Fr	Tx	Ty	Tz	Rx	Ry	Rz	SF
[MASTER]
1 0.000000 -0.000019 0.000002 0.002458 -0.000000 0.000000 0.000019
2 0.000000 -0.000019 0.000002 0.002458 -0.000000 0.000000 0.000019
3 0.000000 -0.000019 0.000002 0.002458 -0.000000 0.000000 0.000019
4 0.000000 -0.000019 0.000002 0.002458 -0.000000 0.000000 0.000019
[weapon]
1 10.182457 -168.977844 -13.084106 -0.002473 -0.000000 -0.000020 169.789246
2 10.182476 -168.977890 -13.084106 -0.002473 -0.000000 -0.000020 169.789291
3 10.182457 -168.977844 -13.084106 -0.002473 -0.000000 -0.000020 169.789246
4 10.182457 -168.977844 -13.084106 -0.002473 -0.000000 -0.000020 169.789246
[arm_lock_bottom_part1]
1 -48.820034 98.566185 -83.498901 179.999985 0.000004 9.388626 138.096909
2 -48.820034 98.566185 -83.498901 179.999985 0.000004 9.388626 138.096909
3 -48.820034 98.566185 -83.498901 179.999985 0.000004 9.388626 138.096909
4 -48.820034 98.566185 -83.498901 179.999985 0.000004 9.388626 138.096909
[arm_lock_bottom_part2]
1 -49.022778 58.781982 -78.526520 179.999985 0.000004 6.576753 109.658417
2 -49.022778 58.781982 -78.526520 179.999985 0.000004 6.576753 109.658417
3 -49.022778 58.781982 -78.526520 179.999985 0.000004 6.576753 109.658417
4 -49.022778 58.781982 -78.526520 179.999985 0.000004 6.576753 109.658417
[arm_lock_bottom_part3]
1 -51.266434 -16.798199 -66.920387 179.999985 0.000004 4.326148 85.957924
2 -51.266434 -16.798199 -66.920387 179.999985 0.000004 4.326148 85.957924
3 -51.266434 -16.798199 -66.920387 179.999985 0.000004 4.326148 85.957924
4 -51.266434 -16.798199 -66.920387 179.999985 0.000004 4.326148 85.957924
[arm_lock_bottom_part4]
1 -40.078083 -93.503029 -59.330029 179.999985 0.000004 1.322134 117.767235
2 -40.078083 -93.503029 -59.330029 179.999985 0.000004 1.322134 117.767235
3 -40.078083 -93.503029 -59.330029 179.999985 0.000004 1.322134 117.767235
4 -40.078083 -93.503029 -59.330029 179.999985 0.000004 1.322134 117.767235
[arm_lock_top_part1]
1 -47.532562 61.554470 78.379471 0.000000 -0.000000 -9.999999 110.415756
2 -47.532562 61.554470 78.379471 0.000000 -0.000000 -9.999999 110.415756
3 -47.532562 61.554470 78.379471 0.000000 -0.000000 -9.999999 110.415756
4 -47.532562 61.554470 78.379471 0.000000 -0.000000 -9.999999 110.415756
[arm_lock_top_part2]
1 -45.622692 13.709888 63.393517 0.000000 -0.000000 -7.722126 79.297722
2 -45.622692 13.709888 63.393517 0.000000 -0.000000 -7.722126 79.297722
3 -45.622692 13.709888 63.393517 0.000000 -0.000000 -7.722126 79.297722
4 -45.622692 13.709888 63.393517 0.000000 -0.000000 -7.722126 79.297722
[arm_lock_top_part3]
1 -43.788521 -73.747162 72.061607 0.000000 -0.000000 -4.533087 112.022110
2 -43.788521 -73.747162 72.061607 0.000000 -0.000000 -4.533087 112.022110
3 -43.788521 -73.747162 72.061607 0.000000 -0.000000 -4.533087 112.022110
4 -43.788521 -73.747162 72.061607 0.000000 -0.000000 -4.533087 112.022110
[front_lower_left_part1]
1 -46.798580 475.070923 -43.538815 -17.979834 0.000980 32.194031 479.351746
2 -46.798580 475.070923 -43.538815 -17.979834 0.000980 32.194031 479.351746
3 -46.798580 475.070923 -43.538815 -17.979834 0.000980 32.194031 479.351746
4 -46.798580 475.070923 -43.538815 -17.979834 0.000980 32.194031 479.351746
[front_lower_right_part1]
1 26.433397 475.070923 -43.538826 -17.168270 -0.001346 -27.315351 477.793640
2 26.433397 475.070923 -43.538826 -17.168274 -0.001346 -27.315355 477.793640
3 26.433397 475.070923 -43.538826 -17.168274 -0.001347 -27.315357 477.793640
4 26.433397 475.070923 -43.538826 -17.168272 -0.001346 -27.315355 477.793640
[front_top_left_part]
1 -47.897255 494.788696 7.031011 -0.000000 0.000003 -0.000001 497.151367
2 -47.897255 494.788696 7.031011 -0.000000 0.000003 -0.000001 497.151367
3 -47.897255 494.788696 7.031011 -0.000000 0.000003 -0.000001 497.151367
4 -47.897255 494.788696 7.031011 -0.000000 0.000003 -0.000001 497.151367
[front_top_right_part1]
1 27.532097 494.788727 7.031008 0.000000 -0.000000 -0.000000 495.604004
2 27.532097 494.788727 7.031008 0.000000 -0.000000 -0.000000 495.604004
3 27.532097 494.788727 7.031008 0.000000 -0.000000 -0.000000 495.604004
4 27.532097 494.788727 7.031008 0.000000 -0.000000 -0.000000 495.604004
[scope_part1]
1 -10.754304 87.338959 156.453140 -5.092303 -15.675989 1.377748 179.503021
2 -10.754304 87.338959 156.453140 -5.031714 -12.916410 1.127265 179.503021
3 -10.754304 87.338959 156.453140 -4.983969 -10.156600 0.882196 179.503021
4 -10.754304 87.338959 156.453140 -5.031714 -12.916410 1.127265 179.503021
[scope_part2]
1 -10.754300 82.597374 156.860001 -5.716451 30.843803 -2.937562 177.603607
2 -10.754300 82.597374 156.860001 -5.548408 27.848299 -2.597012 177.603607
3 -10.754300 82.597374 156.860001 -5.404277 24.851994 -2.274848 177.603607
4 -10.754300 82.597374 156.860001 -5.548408 27.848299 -2.597012 177.603607
[front_lower_left_part2]
1 -55.193569 141.618454 32.268322 0.001867 0.001423 15.369437 155.381348
2 -55.193569 141.618454 32.268322 0.001867 0.001423 15.369437 155.381348
3 -55.193569 141.618454 32.268322 0.001867 0.001423 15.369437 155.381348
4 -55.193569 141.618454 32.268322 0.001867 0.001423 15.369437 155.381348
[front_lower_left_part3]
1 -10.943815 108.509422 -11.124855 35.648113 -8.890127 -24.058449 109.625839
2 -10.943815 108.509422 -11.124855 35.471481 -9.652962 -22.980988 109.625839
3 -10.943815 108.509422 -11.124855 34.997204 -11.449507 -20.394489 109.625839
4 -10.943815 108.509422 -11.124855 34.320354 -13.560298 -17.259359 109.625839
[front_lower_right_part2]
1 55.193596 141.618317 32.268330 0.001362 0.001911 -19.037659 155.381226
2 55.193596 141.618317 32.268330 0.001362 0.001911 -19.037659 155.381226
3 55.193596 141.618317 32.268330 0.001362 0.001911 -19.037659 155.381226
4 55.193596 141.618317 32.268330 0.001362 0.001911 -19.037657 155.381226
[front_lower_right_part3]
1 10.943837 108.509453 -11.124846 35.198795 10.732968 21.429472 109.625862
2 10.943837 108.509453 -11.124846 35.041290 11.294704 20.616867 109.625862
3 10.943837 108.509453 -11.124846 34.636734 12.623188 18.666588 109.625862
4 10.943837 108.509453 -11.124846 34.089336 14.190085 16.307058 109.625862
[front_top_left_part2]
1 -88.355881 137.389816 57.355957 9.859332 0.362888 20.211830 173.125473
2 -88.355881 137.389816 57.355957 9.859332 0.362888 20.211830 173.125473
3 -88.355881 137.389816 57.355957 9.859332 0.362888 20.211830 173.125473
4 -88.355881 137.389816 57.355957 9.859332 0.362888 20.211828 173.125473
[front_top_left_part3]
1 -28.216480 149.656799 49.959614 -26.075191 -1.572462 -61.753662 160.278793
2 -28.216480 149.656799 49.959614 -26.110886 -0.744099 -60.058201 160.278793
3 -28.216480 149.656799 49.959614 -26.109470 0.794710 -56.912224 160.278793
4 -28.216480 149.656799 49.959614 -26.073030 1.623440 -55.219601 160.278793
[front_top_right_part2]
1 82.208443 137.572922 52.660522 8.053999 1.223762 -23.359158 168.694016
2 82.208443 137.572922 52.660522 8.053999 1.223762 -23.359158 168.694016
3 82.208443 137.572922 52.660522 8.053999 1.223762 -23.359158 168.694016
4 82.208443 137.572922 52.660522 8.053999 1.223762 -23.359158 168.694016
[front_top_right_part3]
1 28.216452 149.656952 49.959507 -25.957312 3.004634 64.681458 160.278885
2 28.216452 149.656952 49.959507 -26.061485 1.851180 62.317116 160.278885
3 28.216452 149.656952 49.959507 -26.116137 -0.300325 57.923428 160.278885
4 28.216452 149.656952 49.959507 -26.082964 -1.456780 55.562901 160.278885
